/* XPM */
static char * gps[] = {
"16 16 2 1",
" 	c white",
".	c #006e00",
" .............. ",
"... ............",
"..   ...........",
".     ..........",
"..    ..........",
"...   ..........",
"......   .......",
"......   .......",
". . .    .......",
". . .. ..   ....",
". .. ....    ...",
". ...  ..     ..",
".. .......   ...",
"...    .... ....",
"................",
" .............. "};
