/* XPM */
static char * rm_hold_xpm[] = {
"32 32 3 1",
" 	c yellow",
".	c #006e00",
"X	c white",
" .............................. ",
"..XXXXXXXXXXXXXXXXXXXXXXXXXXXX..",
".X............................X.",
".X............................X.",
".X.........XXX................X.",
".X........XXXXX...............X.",
".X.......XXXXXXX..............X.",
".X.......XXXXXXX..............X.",
".X.......XXXXXXX..............X.",
".X........XXXXX...............X.",
".X.........XXX................X.",
".X......XXXX...........X......X.",
".X.....XXXXX........X..XX.....X.",
".X.....XXXXX........XX.XX.....X.",
".X....XXXXXX.......XXXXXXX....X.",
".X....XXXXXX.......XXXXXXXX...X.",
".X....XXXXXX......XXXXXXXXX...X.",
".X....XXXXXX.....XXXXXXXXXX...X.",
".X....XXXXXX....XXXXXXXXXX....X.",
".X....XXXXXX...XXXXXXXXXXX....X.",
".X....XXXXXX....XXXXXXXXX.....X.",
".X....XXXXXX......XXXXXXX.....X.",
".X....XXXXXX........XXXX......X.",
".X....XXXXXXXXXXXXXXXXX.......X.",
".X....XXXXXXXXXXXXXXXXX.......X.",
".X....XXXXXXXXXXXXXXXX........X.",
".X....XXXXXXXXXXXXXX..........X.",
".X....XXXXXXXXXXXXXX..........X.",
".X............................X.",
".X............................X.",
"..XXXXXXXXXXXXXXXXXXXXXXXXXXXX..",
" .............................. "};
